<svg xmlns="http://www.w3.org/2000/svg" xmlns:xlink="http://www.w3.org/1999/xlink" width="2000" zoomAndPan="magnify" viewBox="0 0 1500 1499.999933" height="2000" preserveAspectRatio="xMidYMid meet" version="1.2"><defs><clipPath id="1955a78ed9"><path d="M 750 0 C 335.785156 0 0 335.785156 0 750 C 0 1164.214844 335.785156 1500 750 1500 C 1164.214844 1500 1500 1164.214844 1500 750 C 1500 335.785156 1164.214844 0 750 0 Z M 750 0 "/></clipPath></defs><g id="164e077070"><g clip-rule="nonzero" clip-path="url(#1955a78ed9)"><rect x="0" width="1500" y="0" height="1499.999933" style="fill:#ffffff;fill-opacity:1;stroke:none;"/></g><path style=" stroke:none;fill-rule:nonzero;fill:#000000;fill-opacity:1;" d="M 516.871094 813.210938 C 550.066406 764.398438 582.046875 715.472656 616.859375 668.511719 C 629.390625 651.609375 636.261719 633.476562 635.738281 611.800781 C 634.808594 573.488281 635.597656 535.128906 635.828125 496.792969 C 635.898438 485.21875 636.320312 473.640625 636.914062 462.082031 C 637.238281 455.757812 635.300781 453.152344 628.441406 451.980469 C 601.453125 447.363281 589.570312 421.789062 603.492188 399.128906 C 609.457031 389.414062 618.703125 385.21875 629.996094 385.21875 C 696.191406 385.230469 762.390625 385.132812 828.585938 385.285156 C 843.730469 385.320312 858.847656 384.222656 874.027344 385.078125 C 889.621094 385.957031 902.054688 394.910156 905.648438 409.332031 C 909.542969 424.953125 902.640625 440.503906 888.636719 447.914062 C 884.441406 450.132812 879.949219 452.410156 875.40625 452.222656 C 866.570312 451.855469 865.855469 456.519531 865.914062 463.570312 C 866.210938 498.871094 866.136719 534.179688 866.183594 569.484375 C 866.199219 581.894531 866.929688 594.363281 866.027344 606.707031 C 864.304688 630.253906 872.175781 650.105469 885.503906 669.125 C 920.460938 719.019531 955.003906 769.21875 988.914062 819.835938 C 1004.519531 843.125 1020.964844 866.132812 1030.535156 892.953125 C 1064.265625 987.453125 1034.019531 1086.171875 950.632812 1144.042969 C 920.589844 1164.890625 888.238281 1180.207031 851.226562 1183.632812 C 846.566406 1184.066406 841.871094 1184.222656 837.191406 1184.230469 C 785.058594 1184.285156 732.902344 1183.285156 680.808594 1184.636719 C 642.25 1185.640625 607.164062 1175.515625 574.207031 1157.179688 C 520.9375 1127.542969 482.277344 1085.140625 466.628906 1025.039062 C 451.167969 965.648438 458.632812 908.828125 490.164062 855.730469 C 498.605469 841.515625 507.730469 827.703125 516.871094 813.210938 M 781.386719 897.972656 C 806.5625 905.085938 831.894531 910.628906 858.21875 912.398438 C 892.757812 914.71875 924.984375 908.03125 955.648438 892.597656 C 965.535156 887.621094 965.789062 886.96875 959.773438 878.015625 C 919.339844 817.84375 879.027344 757.59375 838.195312 697.695312 C 820.296875 671.433594 810.039062 643.410156 810.492188 611.179688 C 811.195312 561.546875 810.6875 511.894531 810.667969 462.25 C 810.664062 450.472656 809.710938 449.445312 798.03125 449.425781 C 767.144531 449.375 736.253906 449.402344 705.363281 449.433594 C 693.664062 449.445312 692.550781 450.519531 692.546875 462.15625 C 692.523438 512.625 692.742188 563.097656 692.484375 613.566406 C 692.335938 642.589844 684.699219 669.484375 668.296875 693.792969 C 637.464844 739.492188 605.835938 784.667969 576.773438 831.546875 C 567.113281 847.136719 557.25 862.605469 546.414062 879.824219 C 569.578125 874.546875 590.628906 869.28125 612.3125 867.863281 C 633.765625 866.460938 655.242188 865.394531 676.5 869.839844 C 711.542969 877.167969 745.757812 887.632812 781.386719 897.972656 Z M 781.386719 897.972656 "/><path style=" stroke:none;fill-rule:nonzero;fill:#000000;fill-opacity:1;" d="M 1142.664062 1233.773438 C 1115.46875 1254.507812 1085.257812 1264.476562 1051.707031 1265.636719 C 1039.328125 1266.0625 1026.953125 1266.652344 1014.554688 1266.835938 C 1009.15625 1266.917969 1007.339844 1264.929688 1007.476562 1259.527344 C 1007.8125 1246.570312 1007.984375 1233.585938 1007.476562 1220.644531 C 1007.1875 1213.222656 1010.019531 1211.34375 1017.046875 1211.15625 C 1039.246094 1210.5625 1060.003906 1204.984375 1078.015625 1191.234375 C 1100.925781 1173.742188 1111.65625 1150.09375 1111.789062 1121.804688 C 1111.945312 1087.890625 1112.011719 1053.976562 1111.277344 1020.050781 C 1110.589844 988.105469 1111.691406 956.121094 1111.699219 924.15625 C 1111.703125 904.359375 1110.21875 884.457031 1115.023438 865.007812 C 1126.628906 818.027344 1155.539062 784.585938 1197.082031 761.175781 C 1199.882812 759.597656 1203.320312 758.914062 1205.273438 755.929688 C 1204.390625 752.300781 1201.195312 751.703125 1198.570312 750.371094 C 1151.25 726.320312 1120.710938 689.199219 1113.789062 635.886719 C 1107.851562 590.148438 1111.351562 543.945312 1110.796875 497.949219 C 1110.394531 464.859375 1110.945312 431.75 1110.199219 398.671875 C 1109.238281 356.113281 1080.824219 324.175781 1038.871094 316.933594 C 1030.691406 315.519531 1022.480469 314.902344 1014.242188 314.570312 C 1009.320312 314.371094 1007.519531 312.296875 1007.585938 307.417969 C 1007.785156 293.078125 1007.6875 278.730469 1007.652344 264.390625 C 1007.644531 260.636719 1008.492188 257.917969 1013.058594 257.914062 C 1044.996094 257.871094 1077.21875 256.214844 1107.460938 269.292969 C 1156.792969 290.625 1185.796875 328.371094 1195.898438 380.910156 C 1198.34375 393.640625 1199.105469 406.515625 1199.089844 419.488281 C 1199.015625 485.410156 1198.949219 551.332031 1199.167969 617.25 C 1199.332031 666.355469 1229.769531 703.011719 1277.667969 712.625 C 1281.933594 713.484375 1287.371094 711.148438 1290.304688 714.746094 C 1293.753906 718.96875 1291.714844 724.851562 1291.765625 729.984375 C 1291.953125 748.460938 1291.386719 766.960938 1292.050781 785.414062 C 1292.339844 793.472656 1289.097656 795.855469 1281.949219 796.730469 C 1253.5 800.21875 1231.289062 814.410156 1214.828125 837.550781 C 1204.507812 852.058594 1199.179688 868.480469 1199.15625 886.34375 C 1199.066406 956.402344 1199.113281 1026.460938 1199.105469 1096.519531 C 1199.105469 1126.480469 1196.382812 1155.933594 1182.976562 1183.40625 C 1173.398438 1203.03125 1160.398438 1219.921875 1142.664062 1233.773438 Z M 1142.664062 1233.773438 "/><path style=" stroke:none;fill-rule:nonzero;fill:#000000;fill-opacity:1;" d="M 299.636719 652.265625 C 304.347656 635.601562 305.804688 619.042969 305.542969 602.605469 C 304.582031 542.203125 304.929688 481.800781 304.875 421.402344 C 304.859375 402.128906 306.234375 382.902344 312.144531 364.320312 C 330.34375 307.109375 369.042969 272.746094 427.792969 261.074219 C 448.449219 256.96875 469.472656 257.886719 490.402344 257.8125 C 495.355469 257.792969 497.292969 259.78125 497.238281 264.710938 C 497.089844 277.949219 496.84375 291.207031 497.382812 304.425781 C 497.6875 311.882812 494.875 313.75 487.816406 313.796875 C 473.414062 313.902344 459.304688 316.53125 446.101562 322.574219 C 411.488281 338.410156 393.765625 366.171875 393.277344 403.539062 C 392.382812 472.214844 392.703125 540.910156 393.058594 609.59375 C 393.359375 667.667969 366.539062 710.558594 320.25 742.957031 C 313.257812 747.851562 305.230469 750.84375 297.125 753.765625 C 298.632812 757.8125 302.324219 758.117188 305.050781 759.699219 C 346.3125 783.636719 376.167969 816.738281 388.574219 863.792969 C 391.535156 875.015625 392.71875 886.554688 392.734375 898.105469 C 392.820312 958.515625 392.566406 1018.925781 392.695312 1079.335938 C 392.730469 1095.84375 391.082031 1112.238281 392.558594 1128.882812 C 395.964844 1167.320312 419.976562 1196.945312 457.371094 1206.199219 C 468.058594 1208.84375 478.808594 1211.347656 489.902344 1211.269531 C 495.304688 1211.234375 497.175781 1213.726562 497.136719 1218.851562 C 497.03125 1232.367188 497.140625 1245.882812 497.230469 1259.398438 C 497.253906 1263.40625 496.480469 1266.605469 491.539062 1266.660156 C 456.160156 1267.046875 420.769531 1266.902344 388.304688 1249.953125 C 342.722656 1226.15625 315.601562 1188.789062 307.429688 1137.851562 C 305.15625 1123.664062 304.777344 1109.339844 304.726562 1095.054688 C 304.480469 1024.992188 304.238281 954.929688 304.582031 884.867188 C 304.785156 844.15625 268.566406 802.859375 226.480469 796.992188 C 222.40625 796.421875 218.371094 795.585938 214.488281 794.902344 C 212.585938 792.550781 213.148438 789.96875 213.144531 787.554688 C 213.09375 765.761719 213.34375 743.964844 212.964844 722.179688 C 212.847656 715.285156 215.269531 713.34375 221.9375 713.039062 C 256.617188 711.445312 288.640625 686.34375 299.636719 652.265625 Z M 299.636719 652.265625 "/></g></svg>